<?xml version="1.0" encoding="utf-8"?>
<!-- Generator: Adobe Illustrator 19.2.0, SVG Export Plug-In . SVG Version: 6.00 Build 0)  -->
<svg version="1.1" id="Layer_1" xmlns="http://www.w3.org/2000/svg" xmlns:xlink="http://www.w3.org/1999/xlink" x="0px" y="0px"
	 viewBox="0 0 165.4 161.8" style="enable-background:new 0 0 165.4 161.8;" xml:space="preserve">
<style type="text/css">
	.st0{fill:#3C3C3B;}
	.st1{fill:#706F6F;}
	.st2{fill:#575756;}
	.st3{fill:#C6C6C6;}
	.st4{fill:#F6F6F6;}
	.st5{fill:#E6E9EF;}
	.st6{fill:#DADADA;}
	.st7{fill:#9D9D9C;}
	.st8{fill:#B2B2B2;}
	.st9{fill:#2B1E11;}
</style>
<g>
	<circle class="st0" cx="82.7" cy="80.9" r="48.8"/>
</g>
<g>
	<path class="st8" d="M93.5,80.7l23.5-13.6L93.5,53.6L70.1,67.3L93.5,80.7z M93.5,80.7"/>
	<path class="st4" d="M72,80.7l23.2-13.5L72,53.6L48.4,67.2L72,80.7z M72,80.7"/>
	<path class="st4" d="M106,100.6l-23.2,13.6l-23.2-13.6V73.5l23.2-13.6L106,73.5V100.6z M106,100.6"/>
	<polyline class="st8" points="82.7,59.9 106,73.5 106,100.6 82.7,114.2 	"/>
	<path class="st4" d="M93.6,93.2l23.3-13.4L93.5,66.2L70,79.8L93.6,93.2z M93.6,93.2"/>
	<path class="st8" d="M72,93.4l23.3-13.7L72,66.2L48.4,79.8L72,93.4z M72,93.4"/>
	<path class="st1" d="M82.8,87.1L106,73.5L82.8,59.9L59.3,73.5L82.8,87.1z M82.8,87.1"/>
	<polyline class="st2" points="82.8,87.1 106,73.5 82.8,59.9 	"/>
	<path class="st9" d="M82.8,87.1l5-3l-5-2.9l-5,2.9L82.8,87.1z M82.8,87.1"/>
	<path class="st4" d="M99.3,102.1l5.5-3.2v-1.8l-5.5,3.2V102.1z M99.3,102.1"/>
	<path class="st4" d="M99.3,98.9l5.5-3.2V94l-5.5,3.2V98.9z M99.3,98.9"/>
	<path class="st4" d="M99.3,95.7l5.5-3.2v-1.9L99.3,94V95.7z M99.3,95.7"/>
</g>
</svg>
