<?xml version="1.0" encoding="utf-8"?>
<!-- Generator: Adobe Illustrator 19.2.0, SVG Export Plug-In . SVG Version: 6.00 Build 0)  -->
<svg version="1.1" id="Layer_1" xmlns="http://www.w3.org/2000/svg" xmlns:xlink="http://www.w3.org/1999/xlink" x="0px" y="0px"
	 viewBox="0 0 165.4 161.8" style="enable-background:new 0 0 165.4 161.8;" xml:space="preserve">
<style type="text/css">
	.st0{fill:#3C3C3B;}
	.st1{fill:#706F6F;}
	.st2{fill:#575756;}
	.st3{fill:#C6C6C6;}
	.st4{fill:#F6F6F6;}
	.st5{fill:#E6E9EF;}
	.st6{fill:#DADADA;}
	.st7{fill:#9D9D9C;}
	.st8{fill:#B2B2B2;}
	.st9{fill:#2B1E11;}
</style>
<g>
	<circle class="st0" cx="82.7" cy="80.9" r="48.8"/>
	<path class="st1" d="M84.2,79.7l-5.6-4.5V70c0-0.4-0.3-0.8-0.8-0.8c-0.4,0-0.8,0.3-0.8,0.8v5.2l-5.6,4.5c-0.2,0.2-0.3,0.4-0.3,0.6
		v3.4c0,0.2,0.2,0.3,0.3,0.3h1.5v-1.5h-0.2v-1.8l5.1-4.1l5.1,4.1v1.8h-0.2V84h1.5c0.2,0,0.3-0.2,0.3-0.3v-3.4
		C84.5,80.1,84.4,79.9,84.2,79.7z"/>
	<path class="st2" d="M44.7,111.4c9,11.1,22.7,18.2,38,18.2s29-7.1,38-18.2H44.7z"/>
	<path class="st3" d="M114.7,108.4H72.6c-3.3,0-5.9-2.7-5.9-5.9l0,0c0-3.3,2.7-5.9,5.9-5.9h42.1c3.3,0,5.9,2.7,5.9,5.9l0,0
		C120.7,105.7,118,108.4,114.7,108.4z"/>
	<g>
		<circle class="st1" cx="114.7" cy="102.5" r="2.8"/>
		<circle class="st1" cx="72.6" cy="102.5" r="2.8"/>
		<circle class="st1" cx="83.1" cy="102.5" r="2.8"/>
		<circle class="st1" cx="93.7" cy="102.5" r="2.8"/>
		<circle class="st1" cx="104.2" cy="102.5" r="2.8"/>
		<rect x="72.7" y="108.4" class="st1" width="42" height="3.1"/>
	</g>
	<path class="st4" d="M114.8,96.5h-8.6c-0.3,0-0.6-0.3-0.6-0.6v-8.6c0-0.3,0.3-0.6,0.6-0.6h8.6c0.3,0,0.6,0.3,0.6,0.6v8.6
		C115.4,96.2,115.1,96.5,114.8,96.5z"/>
	<rect x="109.1" y="86.7" class="st5" width="2.8" height="1"/>
	<path class="st4" d="M100.7,96.5h-8.6c-0.3,0-0.6-0.3-0.6-0.6v-8.6c0-0.3,0.3-0.6,0.6-0.6h8.6c0.3,0,0.6,0.3,0.6,0.6v8.6
		C101.3,96.2,101.1,96.5,100.7,96.5z"/>
	<rect x="95.1" y="86.7" class="st5" width="2.8" height="1"/>
	<path class="st3" d="M80,62.1v7.8c0,0.6-0.2,1.2-0.6,1.5c-0.4,0.4-0.9,0.6-1.5,0.6c-1.2,0-2.2-1-2.2-2.2v-7.8
		c0.7,0.3,1.4,0.5,2.2,0.5S79.3,62.4,80,62.1z"/>
	<path class="st4" d="M82.1,91.3h-8.6c-0.3,0-0.6-0.3-0.6-0.6v-8.6c0-0.3,0.3-0.6,0.6-0.6h8.6c0.3,0,0.6,0.3,0.6,0.6v8.6
		C82.8,91.1,82.4,91.3,82.1,91.3z"/>
	<rect x="76.5" y="81.6" class="st5" width="2.8" height="1"/>
	<g>
		<path class="st3" d="M58.3,61.8v27.5c-0.8-0.4-1.6-0.5-2.5-0.5S54,89,53.2,89.3V61.8c0.8,0.5,1.6,0.7,2.5,0.7S57.5,62.3,58.3,61.8
			z"/>
		<path class="st3" d="M72.8,57.5c0,0.9,0.2,1.8,0.7,2.5H60c0.5-0.8,0.7-1.6,0.7-2.5S60.5,55.8,60,55h13.6
			C73.1,55.8,72.8,56.6,72.8,57.5z"/>
	</g>
	<path class="st4" d="M61.8,111.4H49.7V94.9c0-3.4,2.7-6.1,6.1-6.1l0,0c3.4,0,6.1,2.7,6.1,6.1V111.4z"/>
	<circle class="st6" cx="55.7" cy="94.9" r="3.6"/>
	<circle class="st4" cx="55.7" cy="57.5" r="5"/>
	<circle class="st6" cx="55.7" cy="57.5" r="3.1"/>
	<circle class="st4" cx="77.8" cy="57.5" r="5"/>
	<circle class="st6" cx="77.8" cy="57.5" r="3.1"/>
</g>
</svg>
