<?xml version="1.0" encoding="utf-8"?>
<!-- Generator: Adobe Illustrator 19.2.0, SVG Export Plug-In . SVG Version: 6.00 Build 0)  -->
<svg version="1.1" id="Layer_1" xmlns="http://www.w3.org/2000/svg" xmlns:xlink="http://www.w3.org/1999/xlink" x="0px" y="0px"
	 viewBox="0 0 165.4 161.8" style="enable-background:new 0 0 165.4 161.8;" xml:space="preserve">
<style type="text/css">
	.st0{fill:#3C3C3B;}
	.st1{fill:#706F6F;}
	.st2{fill:#575756;}
	.st3{fill:#C6C6C6;}
	.st4{fill:#F6F6F6;}
	.st5{fill:#E6E9EF;}
	.st6{fill:#DADADA;}
	.st7{fill:#9D9D9C;}
	.st8{fill:#B2B2B2;}
	.st9{fill:#2B1E11;}
</style>
<g>
	<circle class="st0" cx="82.7" cy="80.9" r="48.8"/>
	<g>
		<path class="st7" d="M76.4,59.3l1.6-4.5h9.4l1.6,4.5h2.9l-2.2-6.4C89.5,52.3,89,52,88.3,52H77c-0.6,0-1.1,0.3-1.3,0.9l-2.2,6.4
			H76.4z"/>
		<path class="st6" d="M93.6,109.8H71.7c-2.6,0-4.7-2-5-4.5l-3.9-41.1h39.7l-3.9,41.1C98.3,107.8,96.2,109.8,93.6,109.8z"/>
		<path class="st4" d="M102.9,64.2H62.5c-1.7,0-3.1-1.4-3.1-3.1l0,0c0-1.7,1.4-3.1,3.1-3.1h40.4c1.7,0,3.1,1.4,3.1,3.1l0,0
			C105.9,62.9,104.5,64.2,102.9,64.2z"/>
		<g>
			<g>
				<path class="st2" d="M90.4,88.7h-5v-1.6L83.9,89l-1.4,1.9l1.4,1.9l1.4,1.9v-1.1l2.7-0.1c2.4-0.1,2.9-1.1,2.9-1.1l2.7-4.9
					C92.7,88.9,90.4,88.7,90.4,88.7L90.4,88.7z M90.4,88.7"/>
				<path class="st2" d="M91.8,81.6l-4.3,2.5l2.1,3.7c2.2,0.2,2.9-0.5,2.9-0.5c1.7-1,0.8-3.2,0.8-3.2L91.8,81.6z M91.8,81.6"/>
				<path class="st2" d="M74.7,91.9c-0.7-1.5,0.7-3.4,0.7-3.4l2.6-4.3l1.3,0.8l-0.9-2.2l-0.9-2.2l-2.4,0.2l-2.4,0.2l0.9,0.6L72.4,84
					c-1.1,2.1-0.6,3.1-0.6,3.1L74.7,91.9z M74.7,91.9"/>
			</g>
			<path class="st2" d="M75.4,91.2c-0.1,2,2.3,2.3,2.3,2.3l2.9,0l0.1-4.9l-4.3-0.1C75.2,90.3,75.4,91.2,75.4,91.2L75.4,91.2z
				 M75.4,91.2"/>
			<g>
				<path class="st2" d="M86.1,81.1l2.4,0.4l1-2.2l1-2.2l-1,0.5l-1.4-2.3c-1.2-2-2.4-2-2.4-2l-5.6,0c1.7,0.2,2.6,2.3,2.6,2.3
					l2.4,4.4l-1.4,0.8L86.1,81.1z M86.1,81.1"/>
				<path class="st2" d="M82.2,76.4c-0.9-2-1.8-2.3-1.8-2.3c-1.7-1.1-3.2,0.8-3.2,0.8l-1.5,2.5L80,80L82.2,76.4z M82.2,76.4"/>
			</g>
		</g>
	</g>
</g>
</svg>
